<svg width="96" height="24" viewBox="0 0 96 24" fill="none" xmlns="http://www.w3.org/2000/svg">
<path d="M40.5625 9.42045H42.2557C42.2045 7.55682 40.5568 6.20455 38.1932 6.20455C35.858 6.20455 34.0682 7.53977 34.0682 9.54545C34.0682 11.1648 35.2273 12.1136 37.0966 12.6193L38.4716 12.9943C39.7159 13.3239 40.6761 13.733 40.6761 14.767C40.6761 15.9034 39.5909 16.6534 38.0966 16.6534C36.7443 16.6534 35.6193 16.0511 35.517 14.7841H33.7557C33.8693 16.892 35.5 18.1932 38.108 18.1932C40.8409 18.1932 42.4148 16.7557 42.4148 14.7841C42.4148 12.6875 40.5455 11.875 39.0682 11.5114L37.9318 11.2159C37.0227 10.983 35.8125 10.5568 35.8182 9.44318C35.8182 8.45455 36.7216 7.72159 38.1534 7.72159C39.4886 7.72159 40.4375 8.34659 40.5625 9.42045ZM44.3764 18H46.0753V9.27273H44.3764V18ZM45.2344 7.92614C45.8196 7.92614 46.3082 7.47159 46.3082 6.91477C46.3082 6.35795 45.8196 5.89773 45.2344 5.89773C44.6435 5.89773 44.1605 6.35795 44.1605 6.91477C44.1605 7.47159 44.6435 7.92614 45.2344 7.92614ZM52.0199 21.4375C54.2415 21.4375 55.9574 20.4205 55.9574 18.1932V9.27273H54.2926V10.6875H54.1676C53.8665 10.1477 53.2642 9.15909 51.6392 9.15909C49.5312 9.15909 47.9801 10.8239 47.9801 13.6023C47.9801 16.3864 49.5653 17.8693 51.6278 17.8693C53.2301 17.8693 53.8494 16.9659 54.1562 16.4091H54.2642V18.125C54.2642 19.4716 53.3267 20.0682 52.0369 20.0682C50.6222 20.0682 50.071 19.358 49.7699 18.875L48.3097 19.4773C48.7699 20.5284 49.9347 21.4375 52.0199 21.4375ZM52.0028 16.4602C50.4858 16.4602 49.696 15.2955 49.696 13.5795C49.696 11.9034 50.4688 10.6023 52.0028 10.6023C53.4858 10.6023 54.2812 11.8125 54.2812 13.5795C54.2812 15.3807 53.4688 16.4602 52.0028 16.4602ZM59.9347 12.8182C59.9347 11.4261 60.7869 10.6307 61.9688 10.6307C63.1222 10.6307 63.821 11.3864 63.821 12.6534V18H65.5199V12.4489C65.5199 10.2898 64.3324 9.15909 62.5483 9.15909C61.2358 9.15909 60.3778 9.76705 59.9744 10.6932H59.8665V9.27273H58.2358V18H59.9347V12.8182ZM75.7088 18.1761C78.169 18.1761 79.777 16.375 79.777 13.6761C79.777 10.9602 78.169 9.15909 75.7088 9.15909C73.2486 9.15909 71.6406 10.9602 71.6406 13.6761C71.6406 16.375 73.2486 18.1761 75.7088 18.1761ZM75.7145 16.75C74.1065 16.75 73.3565 15.3466 73.3565 13.6705C73.3565 12 74.1065 10.5795 75.7145 10.5795C77.3111 10.5795 78.0611 12 78.0611 13.6705C78.0611 15.3466 77.3111 16.75 75.7145 16.75ZM87.2017 14.3807C87.2074 15.8636 86.1051 16.5682 85.1506 16.5682C84.0994 16.5682 83.3722 15.8068 83.3722 14.6193V9.27273H81.6733V14.8239C81.6733 16.9886 82.8608 18.1136 84.5369 18.1136C85.8494 18.1136 86.7415 17.4205 87.1449 16.4886H87.2358V18H88.9062V9.27273H87.2017V14.3807ZM95.2628 9.27273H93.473V7.18182H91.7741V9.27273H90.4957V10.6364H91.7741V15.7898C91.7685 17.375 92.9787 18.142 94.3196 18.1136C94.8594 18.108 95.223 18.0057 95.4219 17.9318L95.1151 16.5284C95.0014 16.5511 94.7912 16.6023 94.5185 16.6023C93.9673 16.6023 93.473 16.4205 93.473 15.4375V10.6364H95.2628V9.27273Z" fill="white"/>
<path d="M10.51 5.47998C9.40999 5.47998 8.50999 4.57998 8.50999 3.47998C8.50999 2.37998 9.40999 1.47998 10.51 1.47998C11.61 1.47998 12.51 2.37998 12.51 3.47998C12.51 4.57998 11.61 5.47998 10.51 5.47998ZM15.0653 19.1889C14.5337 19.2952 14.0142 18.9586 13.8941 18.43L13.11 14.98L11.01 16.98V21.98C11.01 22.5323 10.5623 22.98 10.01 22.98C9.4577 22.98 9.00999 22.5323 9.00999 21.98V15.9086C9.00999 15.6349 9.12215 15.3732 9.32033 15.1844L11.11 13.48L10.51 10.48C9.40948 11.7498 7.80734 12.6613 6.00689 12.9111C5.45984 12.9871 5.00998 12.5323 5.00998 11.98C5.00998 11.4277 5.46184 10.9903 6.00424 10.8862C7.46024 10.6069 8.65404 9.72789 9.30999 8.57998L10.31 6.97998C10.71 6.37998 11.31 5.97998 12.01 5.97998C12.31 5.97998 12.51 6.07998 12.81 6.07998L17.3996 8.02175C17.7696 8.17828 18.01 8.541 18.01 8.94272V11.98C18.01 12.5323 17.5623 12.98 17.01 12.98C16.4577 12.98 16.01 12.5323 16.01 11.98V9.57998L14.21 8.87998L15.81 16.98L19.7263 16.1807C20.269 16.07 20.7983 16.4214 20.9069 16.9644L20.9139 16.9994C21.0222 17.541 20.671 18.0678 20.1294 18.1761L15.0653 19.1889Z" fill="white"/>
</svg>
