<svg width="12" height="12" viewBox="0 0 12 12" fill="none" xmlns="http://www.w3.org/2000/svg">
<path fill-rule="evenodd" clip-rule="evenodd" d="M11.7613 1.39088C12.0794 1.0727 12.0794 0.556821 11.7613 0.238637C11.4431 -0.0795461 10.9272 -0.0795457 10.609 0.238638L6.70691 4.14073C6.31639 4.53125 5.68322 4.53125 5.2927 4.14073L1.39088 0.238912C1.0727 -0.0792714 0.556822 -0.0792714 0.238638 0.238912C-0.0795459 0.557096 -0.079546 1.07297 0.238638 1.39116L4.14046 5.29297C4.53098 5.6835 4.53098 6.31666 4.14046 6.70719L0.2388 10.6088C-0.0793838 10.927 -0.0793838 11.4429 0.2388 11.7611C0.556984 12.0793 1.07286 12.0793 1.39104 11.7611L5.2927 7.85943C5.68322 7.46891 6.31639 7.46891 6.70691 7.85943L10.6088 11.7614C10.927 12.0795 11.4429 12.0795 11.7611 11.7614C12.0793 11.4432 12.0793 10.9273 11.7611 10.6091L7.85916 6.70719C7.46863 6.31666 7.46864 5.6835 7.85916 5.29297L11.7613 1.39088Z" fill="#D1C4E8"/>
</svg>
