<svg width="7" height="10" viewBox="0 0 7 10" fill="none" xmlns="http://www.w3.org/2000/svg">
<path fill-rule="evenodd" clip-rule="evenodd" d="M1 0C0.447715 0 0 0.447715 0 1C0 1.55228 0.447715 2 1 2H2C2.55228 2 3 1.55228 3 1C3 0.447715 2.55228 0 2 0H1ZM5 0C4.44772 0 4 0.447715 4 1C4 1.55228 4.44772 2 5 2H6C6.55228 2 7 1.55228 7 1C7 0.447715 6.55228 0 6 0H5ZM0 5C0 4.44772 0.447715 4 1 4H2C2.55228 4 3 4.44772 3 5C3 5.55228 2.55228 6 2 6H1C0.447715 6 0 5.55228 0 5ZM5 4C4.44772 4 4 4.44772 4 5C4 5.55228 4.44772 6 5 6H6C6.55228 6 7 5.55228 7 5C7 4.44772 6.55228 4 6 4H5ZM0 9C0 8.44772 0.447715 8 1 8H2C2.55228 8 3 8.44772 3 9C3 9.55228 2.55228 10 2 10H1C0.447715 10 0 9.55228 0 9ZM5 8C4.44772 8 4 8.44772 4 9C4 9.55228 4.44772 10 5 10H6C6.55228 10 7 9.55228 7 9C7 8.44772 6.55228 8 6 8H5Z" fill="#D5CFDF"/>
</svg>
