<svg width="24" height="24" viewBox="0 0 24 24" fill="none" xmlns="http://www.w3.org/2000/svg">
<mask id="mask0" mask-type="alpha" maskUnits="userSpaceOnUse" x="0" y="0" width="24" height="24">
<circle cx="12" cy="12" r="12" fill="url(#paint0_linear)"/>
</mask>
<g mask="url(#mask0)">
<g filter="url(#filter0_i)">
<circle cx="12" cy="12" r="8" fill="url(#paint1_linear)"/>
</g>
</g>
<path fill-rule="evenodd" clip-rule="evenodd" d="M12 20C16.4183 20 20 16.4183 20 12C20 7.58172 16.4183 4 12 4C7.58172 4 4 7.58172 4 12C4 16.4183 7.58172 20 12 20ZM11 7C11 6.44772 11.4477 6 12 6C12.5523 6 13 6.44772 13 7V11H17C17.5523 11 18 11.4477 18 12C18 12.5523 17.5523 13 17 13H13V17C13 17.5523 12.5523 18 12 18C11.4477 18 11 17.5523 11 17V13H7C6.44772 13 6 12.5523 6 12C6 11.4477 6.44772 11 7 11H11V7Z" fill="white"/>
<defs>
<filter id="filter0_i" x="4" y="4" width="16" height="16" filterUnits="userSpaceOnUse" color-interpolation-filters="sRGB">
<feFlood flood-opacity="0" result="BackgroundImageFix"/>
<feBlend mode="normal" in="SourceGraphic" in2="BackgroundImageFix" result="shape"/>
<feColorMatrix in="SourceAlpha" type="matrix" values="0 0 0 0 0 0 0 0 0 0 0 0 0 0 0 0 0 0 127 0" result="hardAlpha"/>
<feOffset/>
<feGaussianBlur stdDeviation="4"/>
<feComposite in2="hardAlpha" operator="arithmetic" k2="-1" k3="1"/>
<feColorMatrix type="matrix" values="0 0 0 0 0.996078 0 0 0 0 0.976471 0 0 0 0 0.929412 0 0 0 0.4 0"/>
<feBlend mode="normal" in2="shape" result="effect1_innerShadow"/>
</filter>
<linearGradient id="paint0_linear" x1="11.25" y1="-1.69269e-06" x2="12" y2="24" gradientUnits="userSpaceOnUse">
<stop stop-color="#A180FF"/>
<stop offset="0.302083" stop-color="#DE80FF"/>
<stop offset="0.708333" stop-color="#FFBD80"/>
<stop offset="1" stop-color="#FF7E7E"/>
</linearGradient>
<linearGradient id="paint1_linear" x1="11.5" y1="4" x2="12" y2="20" gradientUnits="userSpaceOnUse">
<stop stop-color="#A180FF"/>
<stop offset="0.302083" stop-color="#DE80FF"/>
<stop offset="0.708333" stop-color="#FFBD80"/>
<stop offset="1" stop-color="#FF7E7E"/>
</linearGradient>
</defs>
</svg>
