<svg width="24" height="24" viewBox="0 0 24 24" fill="none" xmlns="http://www.w3.org/2000/svg">
<path d="M3.5 6.5H19.5H3.5Z" fill="#D1C4E8"/>
<path d="M3.5 6.5H19.5" stroke="#D1C4E8" stroke-width="2" stroke-miterlimit="10" stroke-linecap="round"/>
<path d="M8 6C8 4.067 9.567 2.5 11.5 2.5V2.5C13.433 2.5 15 4.067 15 6V6.13636C15 6.33719 14.8372 6.5 14.6364 6.5H8.36364C8.16281 6.5 8 6.33719 8 6.13636V6Z" stroke="#D1C4E8" stroke-width="2"/>
<path d="M5 6.5H18L17.2415 15.7118C17.1166 17.2288 17.0542 17.9873 16.7907 18.5938C16.3415 19.6279 15.4767 20.4243 14.4093 20.7872C13.7832 21 13.0221 21 11.5 21V21C9.97785 21 9.21678 21 8.59067 20.7872C7.52326 20.4243 6.65854 19.6279 6.20932 18.5938C5.94582 17.9873 5.88337 17.2288 5.75846 15.7118L5 6.5Z" stroke="#D1C4E8" stroke-width="2"/>
</svg>
